#!OML:ASF E:\inclinewalkrobotboard\Project 1\Capture day 1\Session 1\subject1.ASF
:FULLY-SPECIFIED
:DEGREES
1
root 6.99099 16.566 35.5531 -172.288 1.08992 179.823
lowerback -8.08246 1.27685 -6.1164
upperback 0.418082 2.24684 1.28338
thorax 4.69302 0.952953 5.05499
lowerneck -8.44258 -0.101781 -3.25023
upperneck 17.6955 -0.944839 3.77402
head 6.80828 -0.604094 1.64751
rclavicle 5.92006e-015 4.07509e-015
rhumerus -45.2489 -35.7996 -63.7746
rradius 22.6421
rwrist 30.295
rhand -17.7104 -44.1671
rfingers 7.12502
rthumb 8.54985 -73.974
lclavicle 5.92006e-015 4.07509e-015
lhumerus -34.0224 19.2974 76.5846
lradius 11.8481
lwrist -40.9608
lhand -25.9427 -21.5276
lfingers 7.12502
lthumb 0.601076 8.45132
rfemur -3.66566 0.842752 20.5373
rtibia 8.47598
rfoot -13.4765 -3.85523
rtoes -30.8108
lfemur -8.12884 -10.2174 -19.8065
ltibia 17.0988
lfoot -16.9772 1.57148
ltoes -57.8667
2
root 6.99432 16.5668 35.5658 -172.383 1.14272 179.784
lowerback -8.00769 1.30977 -6.24071
upperback 0.443759 2.29838 1.2626
thorax 4.66745 0.975533 5.10666
lowerneck -8.73113 -0.147896 -3.00966
upperneck 18.8677 -1.15322 3.6462
head 7.24422 -0.735514 1.5502
rclavicle 7.71533e-015 4.96962e-016
rhumerus -44.6613 -34.5152 -65.2908
rradius 23.0274
rwrist 27.1935
rhand -17.9022 -42.4972
rfingers 7.12502
rthumb 8.36469 -72.3116
lclavicle 7.71533e-015 4.96962e-016
lhumerus -33.9054 18.6236 77.0806
lradius 12.0224
lwrist -40.0546
lhand -25.7992 -21.0959
lfingers 7.12502
lthumb 0.739725 8.88252
rfemur -3.62878 1.00884 20.5309
rtibia 8.46566
rfoot -13.3586 -4.07354
rtoes -31.4289
lfemur -8.02684 -9.799 -19.7638
ltibia 16.9712
lfoot -17.5798 2.01918
ltoes -59.8252
3
root 6.99604 16.5673 35.5774 -172.41 1.21331 179.807
lowerback -8.03767 1.29858 -6.26616
upperback 0.496563 2.2883 1.25897
thorax 4.74051 0.965222 5.11877
lowerneck -9.00316 -0.174354 -2.85904
upperneck 19.8384 -1.32001 3.59513
head 7.61524 -0.840691 1.49392
rclavicle -6.7711e-015 -1.20265e-014
rhumerus -43.9557 -33.4114 -66.7354
rradius 23.2624
rwrist 24.431
rhand -17.9391 -41.0095
rfingers 7.12502
rthumb 8.32913 -70.8253
lclavicle -6.7711e-015 -1.20265e-014
lhumerus -33.78 18.4342 77.3655
lradius 12.131
lwrist -39.6362
lhand -25.8182 -20.8504
lfingers 7.12502
lthumb 0.721358 9.1281
rfemur -3.68281 1.19107 20.5723
rtibia 8.48876
rfoot -13.3583 -4.19122
rtoes -30.7678
lfemur -8.00363 -9.66651 -19.6942
ltibia 16.8939
lfoot -18.2308 2.7591
ltoes -61.6019
4
root 6.99576 16.5675 35.5897 -172.462 1.28232 179.799
lowerback -8.03097 1.27126 -6.28112
upperback 0.5627 2.25401 1.23966
thorax 4.81115 0.942937 5.10452
lowerneck -9.29461 -0.148189 -2.87586
upperneck 20.8883 -1.4459 3.73805
head 8.02057 -0.925464 1.53231
rclavicle -1.7139e-014 -3.18055e-015
rhumerus -43.2002 -32.3158 -68.1711
rradius 23.4075
rwrist 21.6116
rhand -17.8927 -39.4857
rfingers 7.12502
rthumb 8.3739 -69.2997
lclavicle -1.7139e-014 -3.18055e-015
lhumerus -33.6461 18.4735 77.5288
lradius 12.3434
lwrist -39.7665
lhand -25.5569 -20.462
lfingers 7.12502
lthumb 0.973719 9.51552
rfemur -3.72781 1.26142 20.5559
rtibia 8.55947
rfoot -13.3479 -4.24833
rtoes -30.6409
lfemur -7.96192 -9.8652 -19.7393
ltibia 16.8712
lfoot -18.8442 3.88499
ltoes -63.4247
5
root 6.99496 16.5678 35.6045 -172.492 1.34773 179.854
lowerback -8.03202 1.26661 -6.23996
upperback 0.619582 2.24448 1.2331
thorax 4.87458 0.934901 5.07472
lowerneck -9.46707 -0.122787 -2.96915
upperneck 21.8198 -1.59958 4.03348
head 8.37211 -1.01605 1.63163
rclavicle -5.44173e-015 -2.98177e-016
rhumerus -42.2751 -30.707 -70.1057
rradius 23.5219
rwrist 16.8416
rhand -17.5998 -36.3084
rfingers 7.12502
rthumb 8.65656 -66.1109
lclavicle -5.44173e-015 -2.98177e-016
lhumerus -33.4811 18.2807 77.808
lradius 12.737
lwrist -40.0239
lhand -24.8735 -20.3602
lfingers 7.12502
lthumb 1.63369 9.61327
rfemur -3.83921 1.31173 20.6158
rtibia 8.72156
rfoot -13.3732 -4.30879
rtoes -30.8691
lfemur -8.01428 -10.1826 -19.7164
ltibia 17.0713
lfoot -19.8166 5.0783
ltoes -64.8678
6
root 6.99405 16.5665 35.6189 -172.481 1.38277 179.892
lowerback -8.0957 1.27251 -6.21135
upperback 0.669403 2.25595 1.19962
thorax 4.96387 0.936669 5.02829
lowerneck -9.61798 -0.153338 -2.92231
upperneck 22.683 -1.84496 4.25001
head 8.70399 -1.14465 1.67156
rclavicle 1.54058e-015 5.06901e-015
rhumerus -42.1793 -30.9687 -70.159
rradius 23.935
rwrist 18.1609
rhand -16.8018 -36.2847
rfingers 7.12502
rthumb 9.42662 -66.0539
lclavicle 1.54058e-015 5.06901e-015
lhumerus -33.2469 17.5337 78.3793
lradius 13.1396
lwrist -39.4808
lhand -24.7148 -20.7276
lfingers 7.12502
lthumb 1.78705 9.24463
rfemur -3.99279 1.43691 20.6709
rtibia 8.88879
rfoot -13.5336 -4.38952
rtoes -30.704
lfemur -8.15119 -10.3497 -19.6709
ltibia 17.4091
lfoot -20.9045 5.36835
ltoes -65.0608
7
root 6.99325 16.5652 35.6316 -172.507 1.4076 179.852
lowerback -8.1037 1.2845 -6.2606
upperback 0.694023 2.28044 1.14212
thorax 4.99171 0.946306 4.99913
lowerneck -9.75265 -0.191029 -2.9004
upperneck 23.6332 -2.13683 4.5011
head 9.07029 -1.29917 1.72201
rclavicle 1.45144e-014 7.60351e-015
rhumerus -41.9152 -30.1318 -71.1549
rradius 24.452
rwrist 16.1293
rhand -17.6053 -36.1681
rfingers 7.12502
rthumb 8.6512 -65.9708
lclavicle 1.45144e-014 7.60351e-015
lhumerus -32.9909 16.9227 78.8829
lradius 13.3198
lwrist -38.731
lhand -24.872 -20.7104
lfingers 7.12502
lthumb 1.6352 9.26309
rfemur -4.06758 1.56284 20.6407
rtibia 9.00223
rfoot -13.6415 -4.47333
rtoes -30.6757
lfemur -8.20825 -10.3785 -19.713
ltibia 17.5775
lfoot -21.1623 4.49226
ltoes -63.7235
8
root 6.99273 16.5662 35.6442 -172.584 1.45843 179.848
lowerback -8.0322 1.27251 -6.33182
upperback 0.703051 2.26529 1.16491
thorax 4.95941 0.937426 5.05915
lowerneck -9.79048 -0.157203 -3.02655
upperneck 24.6002 -2.32016 4.7331
head 9.42623 -1.42348 1.80274
rclavicle -5.0628e-015 7.95139e-016
rhumerus -41.7944 -29.1715 -71.9546
rradius 25.143
rwrist 14.6574
rhand -17.2054 -35.8876
rfingers 7.12502
rthumb 9.03712 -65.6741
lclavicle -5.0628e-015 7.95139e-016
lhumerus -32.7601 17.0826 79.1045
lradius 13.2187
lwrist -38.711
lhand -24.8588 -20.8871
lfingers 7.12502
lthumb 1.64798 9.08628
rfemur -4.08194 1.61191 20.6371
rtibia 9.09667
rfoot -13.6749 -4.49576
rtoes -30.8538
lfemur -8.16957 -10.3583 -19.7197
ltibia 17.5775
lfoot -21.1985 4.39086
ltoes -63.466
9
root 6.99385 16.5685 35.6608 -172.664 1.45118 179.983
lowerback -7.90911 1.21261 -6.32142
upperback 0.725387 2.16986 1.28607
thorax 4.92171 0.889441 5.1664
lowerneck -9.82174 -0.0787819 -3.26153
upperneck 25.4802 -2.42561 5.00969
head 9.75351 -1.51497 1.92717
rclavicle 1.00448e-014 9.34288e-015
rhumerus -41.6292 -28.6297 -72.3273
rradius 25.6056
rwrist 14.4602
rhand -17.2827 -35.691
rfingers 7.12502
rthumb 8.96254 -65.4806
lclavicle 1.00448e-014 9.34288e-015
lhumerus -32.5053 17.1764 79.4977
lradius 13.2304
lwrist -38.6858
lhand -24.9068 -21.5515
lfingers 7.12502
lthumb 1.60158 8.42224
rfemur -4.09597 1.68151 20.805
rtibia 9.15998
rfoot -13.7197 -4.54698
rtoes -30.7432
lfemur -8.18835 -10.3197 -19.5276
ltibia 17.6459
lfoot -21.2084 4.22444
ltoes -63.1912
10
root 6.99414 16.5708 35.6802 -172.696 1.36396 180.174
lowerback -7.80424 1.15482 -6.22757
upperback 0.757334 2.07166 1.39535
thorax 4.90822 0.841368 5.21468
lowerneck -9.93748 -0.016027 -3.42783
upperneck 26.3798 -2.57486 5.28439
head 10.1117 -1.61985 2.03565
rclavicle -9.97029e-015 -1.29707e-014
rhumerus -41.4029 -28.569 -72.4379
rradius 25.8206
rwrist 15.0759
rhand -17.5723 -35.6487
rfingers 7.12502
rthumb 8.68307 -65.4501
lclavicle -9.97029e-015 -1.29707e-014
lhumerus -32.1365 16.6095 80.2108
lradius 13.4771
lwrist -38.1555
lhand -24.9573 -21.9554
lfingers 7.12502
lthumb 1.5528 8.01874
rfemur -4.17464 1.72207 21.0441
rtibia 9.24185
rfoot -13.6928 -4.62874
rtoes -30.6113
lfemur -8.32128 -10.3019 -19.2551
ltibia 17.7958
lfoot -21.2291 3.87247
ltoes -62.8577
11
root 6.99141 16.5708 35.6939 -172.685 1.32578 180.201
lowerback -7.8266 1.1074 -6.23439
upperback 0.814076 2.01014 1.41523
thorax 4.98811 0.805492 5.2351
lowerneck -10.1151 -0.0391 -3.42324
upperneck 27.1966 -2.82347 5.39019
head 10.4603 -1.76531 2.04328
rclavicle -7.50412e-015 2.08724e-015
rhumerus -41.1174 -28.3416 -72.7603
rradius 26.0732
rwrist 15.1772
rhand -17.7181 -35.8352
rfingers 7.12502
rthumb 8.54241 -65.6424
lclavicle -7.50412e-015 2.08724e-015
lhumerus -31.6812 15.8013 80.9594
lradius 13.7413
lwrist -37.426
lhand -25.018 -22.3019
lfingers 7.12502
lthumb 1.49419 7.67263
rfemur -4.25979 1.67116 21.0598
rtibia 9.28469
rfoot -13.5674 -4.63001
rtoes -30.7371
lfemur -8.34493 -10.2395 -19.2049
ltibia 17.6887
lfoot -21.1153 3.66728
ltoes -62.7741
